<?xml version="1.0" standalone="no"?>
<!DOCTYPE svg PUBLIC "-//W3C//DTD SVG 20010904//EN"
 "http://www.w3.org/TR/2001/REC-SVG-20010904/DTD/svg10.dtd">
<svg version="1.0" xmlns="http://www.w3.org/2000/svg"
 width="96.000000pt" height="96.000000pt" viewBox="0 0 96.000000 96.000000"
 preserveAspectRatio="xMidYMid meet">

<g transform="translate(0.000000,96.000000) scale(0.100000,-0.100000)"
fill="#000000" stroke="none">
<path d="M843 861 c-64 -22 -120 -60 -174 -118 l-40 -44 -60 12 c-63 12 -186
7 -216 -9 -14 -8 -28 0 -70 38 -103 94 -283 132 -283 60 0 -55 123 -235 183
-267 17 -9 17 -13 -3 -96 -11 -48 -20 -99 -20 -113 0 -44 38 -103 87 -135 71
-44 76 -41 71 42 -4 67 -6 74 -39 103 l-35 31 14 45 c8 25 21 60 28 78 22 51
18 71 -18 90 -18 9 -52 35 -77 58 -42 39 -43 42 -29 63 l15 21 40 -29 c22 -16
50 -43 62 -60 26 -36 35 -37 82 -14 54 28 172 29 237 4 l53 -21 19 22 c66 80
85 100 110 118 27 19 28 19 44 1 16 -18 16 -21 -15 -56 -18 -20 -57 -50 -86
-67 -29 -16 -56 -34 -59 -40 -4 -6 4 -42 16 -82 12 -39 26 -84 31 -100 8 -26
5 -33 -28 -61 -35 -30 -37 -36 -41 -104 -5 -80 -2 -82 58 -51 95 48 118 129
77 273 l-25 88 28 14 c76 39 161 163 176 254 11 72 -18 85 -113 52z"/>
<path d="M330 425 c-15 -18 -10 -45 13 -59 34 -22 73 27 47 59 -16 19 -44 19
-60 0z"/>
<path d="M570 425 c-15 -18 -10 -45 13 -59 34 -22 73 27 47 59 -16 19 -44 19
-60 0z"/>
<path d="M445 350 c-11 -18 10 -32 41 -28 40 4 38 32 -3 36 -17 2 -34 -2 -38
-8z"/>
</g>
</svg>
