<svg width="120" height="14" viewBox="0 0 120 14" fill="none" xmlns="http://www.w3.org/2000/svg">
<path d="M5.634 13.216C4.638 13.216 3.672 13.084 2.736 12.82C1.812 12.544 1.068 12.19 0.504 11.758L1.494 9.562C2.034 9.958 2.676 10.276 3.42 10.516C4.164 10.756 4.908 10.876 5.652 10.876C6.48 10.876 7.092 10.756 7.488 10.516C7.884 10.264 8.082 9.934 8.082 9.526C8.082 9.226 7.962 8.98 7.722 8.788C7.494 8.584 7.194 8.422 6.822 8.302C6.462 8.182 5.97 8.05 5.346 7.906C4.386 7.678 3.6 7.45 2.988 7.222C2.376 6.994 1.848 6.628 1.404 6.124C0.972 5.62 0.756 4.948 0.756 4.108C0.756 3.376 0.954 2.716 1.35 2.128C1.746 1.528 2.34 1.054 3.132 0.705999C3.936 0.358 4.914 0.184 6.066 0.184C6.87 0.184 7.656 0.28 8.424 0.471999C9.192 0.664 9.864 0.94 10.44 1.3L9.54 3.514C8.376 2.854 7.212 2.524 6.048 2.524C5.232 2.524 4.626 2.656 4.23 2.92C3.846 3.184 3.654 3.532 3.654 3.964C3.654 4.396 3.876 4.72 4.32 4.936C4.776 5.14 5.466 5.344 6.39 5.548C7.35 5.776 8.136 6.004 8.748 6.232C9.36 6.46 9.882 6.82 10.314 7.312C10.758 7.804 10.98 8.47 10.98 9.31C10.98 10.03 10.776 10.69 10.368 11.29C9.972 11.878 9.372 12.346 8.568 12.694C7.764 13.042 6.786 13.216 5.634 13.216ZM22.0295 3.928C20.9495 3.304 19.7915 2.902 18.5555 2.722V13H15.6395V2.722C14.4035 2.902 13.2395 3.304 12.1475 3.928L11.1575 1.75C12.0215 1.234 12.9575 0.843999 13.9655 0.579999C14.9735 0.316 16.0115 0.184 17.0795 0.184C18.1595 0.184 19.2035 0.316 20.2115 0.579999C21.2315 0.843999 22.1675 1.234 23.0195 1.75L22.0295 3.928ZM29.8222 0.184C30.9862 0.184 32.0002 0.412 32.8642 0.868C33.7282 1.324 34.4002 1.996 34.8802 2.884C35.3602 3.772 35.6002 4.846 35.6002 6.106V13H32.6842V9.976H26.9242V13H24.0442V6.106C24.0442 4.846 24.2842 3.772 24.7642 2.884C25.2442 1.996 25.9162 1.324 26.7802 0.868C27.6442 0.412 28.6582 0.184 29.8222 0.184ZM32.6842 7.636V5.836C32.6842 4.792 32.4262 4.006 31.9102 3.478C31.3942 2.938 30.6922 2.668 29.8042 2.668C28.9042 2.668 28.1962 2.938 27.6802 3.478C27.1762 4.006 26.9242 4.792 26.9242 5.836V7.636H32.6842ZM46.5064 13L44.0764 9.49H43.9324H41.3944V13H38.4784V0.399999H43.9324C45.0484 0.399999 46.0144 0.585999 46.8304 0.957999C47.6584 1.33 48.2944 1.858 48.7384 2.542C49.1824 3.226 49.4044 4.036 49.4044 4.972C49.4044 5.908 49.1764 6.718 48.7204 7.402C48.2764 8.074 47.6404 8.59 46.8124 8.95L49.6384 13H46.5064ZM46.4524 4.972C46.4524 4.264 46.2244 3.724 45.7684 3.352C45.3124 2.968 44.6464 2.776 43.7704 2.776H41.3944V7.168H43.7704C44.6464 7.168 45.3124 6.976 45.7684 6.592C46.2244 6.208 46.4524 5.668 46.4524 4.972ZM60.8947 3.928C59.8147 3.304 58.6567 2.902 57.4207 2.722V13H54.5047V2.722C53.2687 2.902 52.1047 3.304 51.0127 3.928L50.0227 1.75C50.8867 1.234 51.8227 0.843999 52.8307 0.579999C53.8387 0.316 54.8767 0.184 55.9447 0.184C57.0247 0.184 58.0687 0.316 59.0767 0.579999C60.0967 0.843999 61.0327 1.234 61.8847 1.75L60.8947 3.928ZM69.0474 13.216C67.7634 13.216 66.5994 12.94 65.5554 12.388C64.5234 11.824 63.7074 11.05 63.1074 10.066C62.5194 9.07 62.2254 7.948 62.2254 6.7C62.2254 5.452 62.5194 4.336 63.1074 3.352C63.7074 2.356 64.5234 1.582 65.5554 1.03C66.5994 0.466 67.7694 0.184 69.0654 0.184C70.1574 0.184 71.1414 0.376 72.0174 0.76C72.9054 1.144 73.6494 1.696 74.2494 2.416L72.3774 4.144C71.5254 3.16 70.4694 2.668 69.2094 2.668C68.4294 2.668 67.7334 2.842 67.1214 3.19C66.5094 3.526 66.0294 4 65.6814 4.612C65.3454 5.224 65.1774 5.92 65.1774 6.7C65.1774 7.48 65.3454 8.176 65.6814 8.788C66.0294 9.4 66.5094 9.88 67.1214 10.228C67.7334 10.564 68.4294 10.732 69.2094 10.732C70.4694 10.732 71.5254 10.234 72.3774 9.238L74.2494 10.966C73.6494 11.698 72.9054 12.256 72.0174 12.64C71.1294 13.024 70.1394 13.216 69.0474 13.216ZM80.5386 2.74V10.66H82.7166V13H75.4266V10.66H77.6226V2.74H75.4266V0.399999H82.7166V2.74H80.5386ZM91.5978 0.184C93.0978 0.184 94.2678 0.658 95.1078 1.606C95.9478 2.542 96.3678 3.88 96.3678 5.62V13H93.4518V5.71C93.4518 4.702 93.2118 3.946 92.7318 3.442C92.2638 2.926 91.6098 2.668 90.7698 2.668C89.8818 2.668 89.1678 2.944 88.6278 3.496C88.0998 4.036 87.8358 4.84 87.8358 5.908V13H84.9198V0.399999H87.7458V1.93C88.1778 1.354 88.7178 0.921999 89.3658 0.633999C90.0138 0.334 90.7578 0.184 91.5978 0.184ZM109.542 11.92C108.942 12.328 108.186 12.646 107.274 12.874C106.374 13.102 105.414 13.216 104.394 13.216C103.122 13.216 102.042 13.06 101.154 12.748C100.266 12.424 99.594 11.98 99.138 11.416C98.682 10.84 98.454 10.186 98.454 9.454C98.454 8.782 98.64 8.188 99.012 7.672C99.384 7.156 99.894 6.772 100.542 6.52C100.05 6.256 99.666 5.896 99.39 5.44C99.126 4.984 98.994 4.474 98.994 3.91C98.994 3.226 99.204 2.602 99.624 2.038C100.044 1.474 100.68 1.024 101.532 0.688C102.384 0.352 103.428 0.184 104.664 0.184C105.48 0.184 106.278 0.268 107.058 0.436C107.838 0.591999 108.516 0.807999 109.092 1.084L108.282 3.316C107.178 2.8 106.008 2.542 104.772 2.542C103.836 2.542 103.128 2.686 102.648 2.974C102.18 3.25 101.946 3.628 101.946 4.108C101.946 4.552 102.102 4.894 102.414 5.134C102.738 5.362 103.224 5.476 103.872 5.476H107.31V7.78H103.692C102.96 7.78 102.396 7.906 102 8.158C101.604 8.41 101.406 8.776 101.406 9.256C101.406 9.76 101.658 10.156 102.162 10.444C102.678 10.72 103.464 10.858 104.52 10.858C105.264 10.858 106.008 10.762 106.752 10.57C107.496 10.366 108.126 10.084 108.642 9.724L109.542 11.92ZM119.266 7.798H116.134V10.858H113.812V7.798H110.698V5.602H113.812V2.542H116.134V5.602H119.266V7.798Z" fill="#FFC603"/>
</svg>
